<?xml version="1.0" encoding="UTF-8"?>
<svg xmlns="http://www.w3.org/2000/svg" xmlns:xlink="http://www.w3.org/1999/xlink" width="103px" height="75px" viewBox="0 0 102 75" version="1.1">
<g id="surface1">
<path style=" stroke:none;fill-rule:nonzero;fill:rgb(99.607843%,82.352942%,16.470589%);fill-opacity:1;" d="M 53.234375 68.0625 L 20.902344 74.644531 C 10.097656 76.84375 0 68.535156 0 57.449219 C 0 36.707031 15.878906 10.644531 36.078125 8.996094 L 48.765625 6.9375 L 81.097656 0.355469 C 91.902344 -1.84375 102 6.464844 102 17.550781 C 102 38.292969 86.121094 64.355469 65.921875 66.003906 Z M 53.234375 68.0625 "/>
<path style=" stroke:none;fill-rule:evenodd;fill:rgb(5.490196%,5.490196%,5.490196%);fill-opacity:1;" d="M 76.011719 22.070312 L 76.011719 16 L 68.453125 16 L 68.453125 22.070312 L 65.359375 22.070312 L 65.359375 27.347656 L 68.453125 27.347656 L 68.453125 39.457031 C 68.453125 41.96875 69.070312 43.839844 70.316406 45.074219 C 71.554688 46.308594 73.476562 46.925781 76.078125 46.925781 C 77.554688 46.925781 78.976562 46.707031 80.335938 46.269531 L 80.335938 40.835938 C 79.828125 40.925781 79.199219 40.96875 78.453125 40.96875 C 77.480469 40.96875 76.832031 40.789062 76.503906 40.429688 C 76.171875 40.070312 76.011719 39.429688 76.011719 38.511719 L 76.011719 27.347656 L 80 27.347656 L 80 22.070312 Z M 53.945312 46.925781 C 50.222656 46.925781 47.210938 45.808594 44.910156 43.574219 C 42.609375 41.34375 41.457031 38.4375 41.457031 34.859375 L 41.457031 34.226562 C 41.457031 31.730469 41.914062 29.527344 42.835938 27.617188 C 43.757812 25.707031 45.09375 24.230469 46.859375 23.183594 C 48.621094 22.140625 50.714844 21.617188 53.136719 21.617188 C 56.546875 21.617188 59.238281 22.683594 61.210938 24.808594 C 63.183594 26.9375 64.167969 29.902344 64.167969 33.707031 L 64.167969 36.660156 L 49.144531 36.660156 C 49.414062 38.03125 50.003906 39.105469 50.917969 39.886719 C 51.832031 40.667969 53.011719 41.058594 54.460938 41.058594 C 56.855469 41.058594 58.71875 40.21875 60.066406 38.535156 L 63.519531 42.636719 C 62.578125 43.949219 61.246094 44.988281 59.519531 45.761719 C 57.792969 46.539062 55.933594 46.925781 53.945312 46.925781 Z M 53.09375 27.480469 C 50.882812 27.480469 49.5625 28.957031 49.144531 31.902344 L 56.769531 31.902344 L 56.769531 31.316406 C 56.800781 30.097656 56.496094 29.15625 55.851562 28.484375 C 55.210938 27.816406 54.289062 27.480469 53.09375 27.480469 Z M 27.847656 40.609375 L 38.898438 40.609375 L 38.898438 46.472656 L 18.292969 46.472656 L 18.292969 42.234375 L 29.054688 27.933594 L 18.761719 27.933594 L 18.761719 22.070312 L 38.652344 22.070312 L 38.652344 26.175781 Z M 27.847656 40.609375 "/>
<path style=" stroke:none;fill-rule:evenodd;fill:rgb(5.490196%,5.490196%,5.490196%);fill-opacity:1;" d="M 55.910156 48.800781 C 55.78125 48.933594 55.71875 49.101562 55.71875 49.304688 C 55.71875 49.503906 55.78125 49.667969 55.910156 49.796875 C 56.035156 49.929688 56.214844 49.996094 56.449219 49.996094 C 56.683594 49.996094 56.867188 49.929688 56.996094 49.796875 C 57.121094 49.667969 57.1875 49.503906 57.1875 49.304688 C 57.1875 49.101562 57.121094 48.933594 56.996094 48.800781 C 56.867188 48.667969 56.683594 48.601562 56.449219 48.601562 C 56.214844 48.601562 56.035156 48.667969 55.910156 48.800781 Z M 55.800781 56.625 L 57.097656 56.625 L 57.097656 50.816406 L 55.800781 50.816406 Z M 20.425781 55.40625 C 20.210938 55.597656 19.941406 55.691406 19.617188 55.691406 C 19.191406 55.691406 18.867188 55.539062 18.640625 55.226562 C 18.414062 54.917969 18.300781 54.449219 18.300781 53.820312 L 18.300781 53.609375 C 18.304688 52.988281 18.421875 52.523438 18.648438 52.214844 C 18.875 51.910156 19.199219 51.757812 19.617188 51.757812 C 19.945312 51.757812 20.214844 51.863281 20.425781 52.078125 C 20.640625 52.292969 20.753906 52.566406 20.765625 52.898438 L 21.988281 52.898438 C 21.96875 52.246094 21.742188 51.714844 21.308594 51.3125 C 20.875 50.910156 20.316406 50.710938 19.628906 50.710938 C 18.816406 50.710938 18.179688 50.976562 17.707031 51.507812 C 17.238281 52.039062 17.003906 52.746094 17.003906 53.628906 L 17.003906 53.765625 C 17.003906 54.691406 17.242188 55.417969 17.714844 55.945312 C 18.1875 56.46875 18.828125 56.734375 19.636719 56.734375 C 20.050781 56.734375 20.4375 56.640625 20.800781 56.460938 C 21.160156 56.277344 21.441406 56.027344 21.652344 55.714844 C 21.863281 55.402344 21.976562 55.066406 21.988281 54.703125 L 20.765625 54.703125 C 20.753906 54.984375 20.640625 55.21875 20.425781 55.40625 Z M 33.023438 56.082031 C 33.0625 56.335938 33.113281 56.515625 33.171875 56.625 L 34.496094 56.625 L 34.496094 56.535156 C 34.347656 56.222656 34.277344 55.804688 34.277344 55.285156 L 34.277344 52.664062 C 34.265625 52.046875 34.058594 51.566406 33.65625 51.222656 C 33.253906 50.882812 32.714844 50.710938 32.039062 50.710938 C 31.597656 50.710938 31.191406 50.789062 30.832031 50.945312 C 30.46875 51.105469 30.183594 51.320312 29.976562 51.597656 C 29.765625 51.875 29.660156 52.175781 29.660156 52.492188 L 30.957031 52.492188 C 30.957031 52.261719 31.050781 52.074219 31.238281 51.925781 C 31.429688 51.777344 31.667969 51.703125 31.964844 51.703125 C 32.308594 51.703125 32.5625 51.792969 32.730469 51.972656 C 32.894531 52.15625 32.980469 52.394531 32.980469 52.695312 L 32.980469 53.078125 L 32.183594 53.078125 C 31.332031 53.078125 30.679688 53.242188 30.222656 53.574219 C 29.765625 53.90625 29.539062 54.378906 29.539062 55 C 29.539062 55.488281 29.71875 55.902344 30.085938 56.234375 C 30.453125 56.566406 30.925781 56.734375 31.507812 56.734375 C 32.105469 56.734375 32.609375 56.515625 33.023438 56.082031 Z M 32.46875 55.5 C 32.246094 55.625 32.003906 55.6875 31.746094 55.6875 C 31.46875 55.6875 31.246094 55.613281 31.082031 55.464844 C 30.917969 55.316406 30.832031 55.117188 30.832031 54.863281 C 30.832031 54.558594 30.957031 54.320312 31.195312 54.152344 C 31.4375 53.984375 31.800781 53.898438 32.28125 53.898438 L 32.980469 53.898438 L 32.980469 54.996094 C 32.867188 55.207031 32.695312 55.375 32.46875 55.5 Z M 45.871094 55.046875 C 45.871094 54.816406 45.777344 54.636719 45.585938 54.515625 C 45.394531 54.394531 45.082031 54.285156 44.640625 54.195312 C 44.199219 54.101562 43.828125 53.984375 43.535156 53.839844 C 42.886719 53.523438 42.5625 53.070312 42.5625 52.472656 C 42.5625 51.96875 42.773438 51.550781 43.191406 51.214844 C 43.613281 50.878906 44.148438 50.710938 44.792969 50.710938 C 45.484375 50.710938 46.042969 50.882812 46.464844 51.226562 C 46.890625 51.570312 47.105469 52.015625 47.105469 52.5625 L 45.808594 52.5625 C 45.808594 52.3125 45.714844 52.101562 45.53125 51.9375 C 45.34375 51.769531 45.101562 51.6875 44.792969 51.6875 C 44.507812 51.6875 44.277344 51.753906 44.097656 51.886719 C 43.917969 52.019531 43.828125 52.195312 43.828125 52.417969 C 43.828125 52.617188 43.910156 52.773438 44.078125 52.882812 C 44.246094 52.996094 44.582031 53.109375 45.09375 53.21875 C 45.601562 53.332031 46 53.464844 46.289062 53.621094 C 46.582031 53.777344 46.796875 53.964844 46.9375 54.183594 C 47.078125 54.402344 47.148438 54.667969 47.148438 54.976562 C 47.148438 55.5 46.933594 55.925781 46.5 56.246094 C 46.070312 56.570312 45.507812 56.734375 44.808594 56.734375 C 44.335938 56.734375 43.914062 56.648438 43.542969 56.476562 C 43.175781 56.304688 42.886719 56.066406 42.679688 55.765625 C 42.472656 55.464844 42.371094 55.144531 42.371094 54.796875 L 43.628906 54.796875 C 43.648438 55.105469 43.761719 55.339844 43.976562 55.507812 C 44.191406 55.671875 44.472656 55.757812 44.824219 55.757812 C 45.167969 55.757812 45.425781 55.691406 45.605469 55.558594 C 45.78125 55.429688 45.871094 55.257812 45.871094 55.046875 Z M 65.972656 50.816406 L 66.011719 51.488281 C 66.4375 50.96875 67 50.710938 67.691406 50.710938 C 68.894531 50.710938 69.507812 51.402344 69.527344 52.789062 L 69.527344 56.625 L 68.230469 56.625 L 68.230469 52.863281 C 68.230469 52.496094 68.152344 52.222656 67.992188 52.042969 C 67.835938 51.867188 67.574219 51.777344 67.21875 51.777344 C 66.695312 51.777344 66.304688 52.015625 66.046875 52.492188 L 66.046875 56.625 L 64.75 56.625 L 64.75 50.816406 Z M 76.589844 52.128906 C 76.367188 52.585938 76.253906 53.097656 76.253906 53.667969 L 76.253906 53.730469 C 76.253906 54.640625 76.5 55.371094 76.988281 55.914062 C 77.476562 56.460938 78.128906 56.734375 78.945312 56.734375 C 79.476562 56.734375 79.949219 56.609375 80.355469 56.363281 C 80.761719 56.117188 81.074219 55.765625 81.292969 55.316406 C 81.511719 54.863281 81.625 54.351562 81.625 53.78125 L 81.617188 53.476562 C 81.578125 52.640625 81.316406 51.972656 80.832031 51.46875 C 80.34375 50.960938 79.710938 50.710938 78.933594 50.710938 C 78.40625 50.710938 77.941406 50.832031 77.535156 51.078125 C 77.128906 51.324219 76.8125 51.671875 76.589844 52.128906 Z M 77.917969 55.183594 C 77.675781 54.847656 77.550781 54.378906 77.550781 53.78125 C 77.550781 53.109375 77.675781 52.601562 77.925781 52.265625 C 78.171875 51.925781 78.507812 51.757812 78.933594 51.757812 C 79.363281 51.757812 79.703125 51.929688 79.953125 52.273438 C 80.207031 52.617188 80.332031 53.082031 80.332031 53.667969 C 80.332031 54.332031 80.210938 54.832031 79.964844 55.175781 C 79.722656 55.519531 79.382812 55.691406 78.945312 55.691406 C 78.503906 55.691406 78.164062 55.523438 77.917969 55.183594 Z M 77.917969 55.183594 "/>
</g>
</svg>
